<svg width="131" height="131" viewBox="0 0 131 131" fill="none" xmlns="http://www.w3.org/2000/svg">
<path d="M98.9393 64.9457C98.9393 82.9392 84.3527 97.5257 66.3593 97.5257C48.3659 97.5257 33.7793 82.9392 33.7793 64.9457C33.7793 46.9523 48.3659 32.3657 66.3593 32.3657C84.3527 32.3657 98.9393 46.9523 98.9393 64.9457ZM41.5985 64.9457C41.5985 78.6207 52.6843 89.7065 66.3593 89.7065C80.0343 89.7065 91.1201 78.6207 91.1201 64.9457C91.1201 51.2707 80.0343 40.1849 66.3593 40.1849C52.6843 40.1849 41.5985 51.2707 41.5985 64.9457Z" fill="#F7F8F9"/>
<path d="M81.8734 40.8355C83.0418 39.0197 82.5248 36.5768 80.5823 35.6341C74.3939 32.6312 67.3786 31.6493 60.5449 32.8888C52.4222 34.362 45.1616 38.8639 40.2304 45.4845C35.2993 52.1052 33.0653 60.3509 33.9799 68.5553C34.7494 75.4578 37.6992 81.898 42.3486 86.9672C43.808 88.5585 46.2967 88.3542 47.7018 86.7148C49.1069 85.0753 48.8882 82.6241 47.4901 80.9787C44.315 77.2418 42.3007 72.6207 41.7509 67.689C41.0558 61.4537 42.7537 55.1869 46.5014 50.1552C50.249 45.1235 55.7671 41.7021 61.9404 40.5824C66.8229 39.6968 71.8273 40.3033 76.317 42.2753C78.2939 43.1437 80.705 42.6513 81.8734 40.8355Z" fill="#F75D5F"/>
<path d="M114.972 64.6932C114.972 91.6834 93.0926 113.563 66.1024 113.563C39.1123 113.563 17.2324 91.6834 17.2324 64.6932C17.2324 37.7031 39.1123 15.8232 66.1024 15.8232C93.0926 15.8232 114.972 37.7031 114.972 64.6932ZM25.5403 64.6932C25.5403 87.0951 43.7006 105.255 66.1024 105.255C88.5043 105.255 106.665 87.0951 106.665 64.6932C106.665 42.2914 88.5043 24.1311 66.1024 24.1311C43.7006 24.1311 25.5403 42.2914 25.5403 64.6932Z" fill="#F7F8F9"/>
<path d="M90.2992 27.0895C91.5406 25.1602 90.99 22.5726 88.9623 21.4994C81.4377 17.517 72.9795 15.5579 64.4232 15.8521C54.4788 16.194 44.8757 19.5633 36.8977 25.5096C28.9196 31.4558 22.9468 39.6957 19.7776 49.1278C16.6083 58.5598 16.3937 68.7346 19.1625 78.2918C21.9313 87.8491 27.5514 96.3335 35.2717 102.611C42.9919 108.888 52.4444 112.659 62.3655 113.42C72.2867 114.181 82.2036 111.895 90.7908 106.869C98.1794 102.544 104.281 96.3665 108.511 88.9786C109.651 86.9878 108.733 84.5065 106.653 83.5396C104.572 82.5727 102.12 83.4891 100.945 85.4598C97.4516 91.3221 92.5219 96.2286 86.5938 99.6988C79.4664 103.871 71.2353 105.768 63.0008 105.137C54.7663 104.505 46.9207 101.375 40.5129 96.1648C34.1051 90.9546 29.4404 83.9126 27.1423 75.9801C24.8442 68.0475 25.0223 59.6025 27.6528 51.7739C30.2832 43.9453 35.2407 37.1062 41.8625 32.1708C48.4843 27.2354 56.4548 24.4389 64.7086 24.1551C71.5737 23.9191 78.3627 25.4307 84.4491 28.5175C86.4952 29.5552 89.0578 29.0188 90.2992 27.0895Z" fill="#00C7F2"/>
<path d="M131.004 65.4603C131.004 101.447 101.83 130.62 65.8436 130.62C29.8567 130.62 0.683594 101.447 0.683594 65.4603C0.683594 29.4734 29.8567 0.300293 65.8436 0.300293C101.83 0.300293 131.004 29.4734 131.004 65.4603ZM9.15439 65.4603C9.15439 96.7689 34.535 122.15 65.8436 122.15C97.1522 122.15 122.533 96.7689 122.533 65.4603C122.533 34.1517 97.1522 8.77109 65.8436 8.77109C34.535 8.77109 9.15439 34.1517 9.15439 65.4603Z" fill="#F7F8F9"/>
<path d="M98.8111 14.226C100.077 12.2589 99.5142 9.6249 97.4691 8.48953C84.6299 1.3618 69.715 -1.23995 55.1476 1.18416C39.1834 3.8407 24.7791 12.343 14.7389 25.0358C4.69873 37.7286 -0.258732 53.7036 0.831659 69.8505C1.92205 85.9975 8.98226 101.161 20.6378 112.389C32.2933 123.616 47.7099 130.105 63.8864 130.591C80.0628 131.077 95.8412 125.526 108.15 115.018C120.459 104.511 128.417 89.7987 130.475 73.7464C132.353 59.0986 129.195 44.2914 121.593 31.7276C120.382 29.7263 117.728 29.2625 115.81 30.6009C113.891 31.9393 113.436 34.5724 114.628 36.5853C121.037 47.4136 123.683 60.1087 122.073 72.6692C120.282 86.6347 113.359 99.4342 102.65 108.576C91.9415 117.717 78.2143 122.547 64.1408 122.124C50.0673 121.701 36.6548 116.056 26.5145 106.288C16.3742 96.5197 10.2318 83.3276 9.28321 69.2798C8.33457 55.2319 12.6476 41.3338 21.3825 30.291C30.1175 19.2483 42.6493 11.8512 56.5381 9.54005C69.0296 7.46139 81.8148 9.63045 92.8751 15.6308C94.9311 16.7463 97.5454 16.1931 98.8111 14.226Z" fill="#FBC62F"/>
</svg>
